<svg width="75" height="75" viewBox="0 0 75 75" fill="none" xmlns="http://www.w3.org/2000/svg">
<path d="M68.3232 22.2656H6.7998C5.5853 22.2656 4.60254 21.2829 4.60254 20.0684V6.5918C4.60254 2.95693 7.55947 0 11.1943 0H63.9287C67.5636 0 70.5205 2.95693 70.5205 6.5918V20.0684C70.5205 21.2829 69.5377 22.2656 68.3232 22.2656Z" fill="#DEEAE2"/>
<path d="M63.9287 0H37.5615V22.2656H68.3232C69.5377 22.2656 70.5205 21.2829 70.5205 20.0684V6.5918C70.5205 2.95693 67.5636 0 63.9287 0Z" fill="#BAC0BC"/>
<path d="M4.51773 46.4353C4.51846 46.432 4.51875 46.4304 4.51875 46.4304L0.147366 25.6055C-0.160252 23.6279 0.367092 21.6502 1.59771 20.2C2.87197 18.7061 4.71753 17.8711 6.65112 17.8711H68.3505C70.2841 17.8711 72.1298 18.7061 73.4041 20.2C74.6347 21.6504 75.162 23.6279 74.8544 25.5176L70.483 46.4408L74.8544 67.2656C75.162 69.2432 74.6347 71.2208 73.4041 72.6708C72.1298 74.165 70.2842 75 68.3506 75H6.65112C4.71753 75 2.87183 74.165 1.59756 72.6708C0.367092 71.2207 -0.160252 69.2432 0.147366 67.3535C0.147366 67.3535 4.44185 46.7981 4.51773 46.4353Z" fill="#3DF279"/>
<path d="M4.51875 46.4304C4.51875 46.4304 4.51846 46.432 4.51773 46.4353H70.4842L74.8544 25.5176C75.162 23.6279 74.6347 21.6504 73.4041 20.2C72.1298 18.7061 70.2842 17.8711 68.3506 17.8711H6.65112C4.71753 17.8711 2.87183 18.7061 1.59756 20.2C0.367092 21.6504 -0.160252 23.6279 0.147366 25.6055L4.51875 46.4304Z" fill="#36D96C"/>
<path d="M15.5273 13.1836C16.7409 13.1836 17.7246 12.1998 17.7246 10.9863C17.7246 9.77281 16.7409 8.78906 15.5273 8.78906C14.3138 8.78906 13.3301 9.77281 13.3301 10.9863C13.3301 12.1998 14.3138 13.1836 15.5273 13.1836Z" fill="white"/>
<path d="M59.4727 13.1836C60.6862 13.1836 61.6699 12.1998 61.6699 10.9863C61.6699 9.77281 60.6862 8.78906 59.4727 8.78906C58.2591 8.78906 57.2754 9.77281 57.2754 10.9863C57.2754 12.1998 58.2591 13.1836 59.4727 13.1836Z" fill="#E3EAE5"/>
<path d="M28.7137 61.8164C24.9972 61.8164 21.6649 59.4625 20.4268 55.9563C20.0212 54.8125 20.6199 53.5573 21.7658 53.1539C22.9052 52.7462 24.1648 53.3492 24.5682 54.4929C25.1883 56.2438 26.8554 57.4219 28.7137 57.4219C31.1363 57.4219 33.1082 55.4499 33.1082 53.0273C33.1082 50.6048 31.1363 48.6328 28.7137 48.6328H25.9822C24.7699 48.6328 23.7849 47.65 23.7849 46.4355C23.7849 45.221 24.7699 44.2383 25.9822 44.2383H28.7137C31.1363 44.2383 33.1082 42.2663 33.1082 39.8438C33.1082 37.4212 31.1363 35.4492 28.7137 35.4492C26.8554 35.4492 25.1883 36.6272 24.5681 38.3782C24.1646 39.524 22.903 40.1249 21.7657 39.7172C20.6199 39.3138 20.0212 38.0585 20.4266 36.9148C21.6649 33.4085 24.9972 31.0547 28.7137 31.0547C33.561 31.0547 37.5028 34.9964 37.5028 39.8438C37.5028 42.4658 36.3483 44.8241 34.5202 46.4355C36.3483 48.047 37.5028 50.4053 37.5028 53.0273C37.5028 57.8747 33.561 61.8164 28.7137 61.8164Z" fill="white"/>
<path d="M21.7627 39.7172C22.9 40.1249 24.1616 39.5241 24.5651 38.3782C25.1853 36.6272 26.8526 35.4492 28.7107 35.4492C31.1333 35.4492 33.1052 37.4212 33.1052 39.8438C33.1052 42.2663 31.1333 44.2383 28.7107 44.2383H25.9792C24.7669 44.2383 23.7821 45.2209 23.7819 46.4353H34.5175C36.3455 44.8238 37.4998 42.4657 37.4998 39.8438C37.4998 34.9964 33.558 31.0547 28.7107 31.0547C24.9943 31.0547 21.6619 33.4085 20.4238 36.9148C20.0182 38.0585 20.6169 39.3138 21.7627 39.7172Z" fill="#E3EAE5"/>
<path d="M50.6854 61.8161C49.4709 61.8161 48.4881 60.8334 48.4881 59.6189V37.3565L45.3123 39.4743C44.2996 40.1438 42.937 39.8735 42.2653 38.865C41.5915 37.8544 41.8641 36.4918 42.8747 35.8179L49.4665 31.4234C50.1403 30.9749 51.0093 30.9321 51.7218 31.314C52.4363 31.696 52.8827 32.4406 52.8827 33.2517V59.6189C52.8827 60.8334 51.8999 61.8161 50.6854 61.8161Z" fill="white"/>
<path d="M45.3123 39.4743L48.4881 37.3564V46.4348H52.8827V33.2516C52.8827 32.4406 52.4363 31.696 51.7218 31.3139C51.0094 30.9321 50.1403 30.975 49.4665 31.4234L42.8747 35.8179C41.8641 36.4917 41.5915 37.8542 42.2653 38.8649C42.9371 39.8735 44.2996 40.1439 45.3123 39.4743Z" fill="#E3EAE5"/>
</svg>
