<svg width="36" height="36" viewBox="0 0 36 36" fill="none" xmlns="http://www.w3.org/2000/svg">
<path d="M32.7954 10.6875H3.26416C2.6812 10.6875 2.20947 10.2158 2.20947 9.63281V3.16406C2.20947 1.41933 3.6288 0 5.37353 0H30.686C32.4308 0 33.8501 1.41933 33.8501 3.16406V9.63281C33.8501 10.2158 33.3784 10.6875 32.7954 10.6875Z" fill="#E3E7EA"/>
<path d="M30.686 0H18.0298V10.6875H32.7954C33.3784 10.6875 33.8501 10.2158 33.8501 9.63281V3.16406C33.8501 1.41933 32.4308 0 30.686 0Z" fill="#BABAC0"/>
<path d="M2.16876 22.2889C2.16911 22.2874 2.16926 22.2866 2.16926 22.2866L0.0709894 12.2906C-0.0766669 11.3414 0.176458 10.3921 0.767153 9.69602C1.3788 8.97891 2.26467 8.57812 3.19279 8.57812H32.8085C33.7366 8.57812 34.6226 8.97891 35.2342 9.69602C35.8249 10.3922 36.078 11.3414 35.9304 12.2484L33.8321 22.2916L35.9304 32.2875C36.078 33.2367 35.8249 34.186 35.2342 34.882C34.6226 35.5992 33.7367 36 32.8086 36H3.19279C2.26467 36 1.37873 35.5992 0.767083 34.882C0.176458 34.1859 -0.0766669 33.2367 0.0709894 32.3297C0.0709894 32.3297 2.13234 22.4631 2.16876 22.2889Z" fill="#4086F4"/>
<path d="M2.16926 22.2866C2.16926 22.2866 2.16911 22.2874 2.16876 22.2889H33.8327L35.9304 12.2484C36.078 11.3414 35.8249 10.3922 35.2342 9.69602C34.6226 8.97891 33.7367 8.57812 32.8086 8.57812H3.19279C2.26467 8.57812 1.37873 8.97891 0.767083 9.69602C0.176458 10.3922 -0.0766669 11.3414 0.0709894 12.2906L2.16926 22.2866Z" fill="#4175DF"/>
<path d="M7.45312 6.32812C8.03561 6.32812 8.50781 5.85593 8.50781 5.27344C8.50781 4.69095 8.03561 4.21875 7.45312 4.21875C6.87064 4.21875 6.39844 4.69095 6.39844 5.27344C6.39844 5.85593 6.87064 6.32812 7.45312 6.32812Z" fill="#FFF5F5"/>
<path d="M28.5469 6.32812C29.1294 6.32812 29.6016 5.85593 29.6016 5.27344C29.6016 4.69095 29.1294 4.21875 28.5469 4.21875C27.9644 4.21875 27.4922 4.69095 27.4922 5.27344C27.4922 5.85593 27.9644 6.32812 28.5469 6.32812Z" fill="#E3E7EA"/>
<path d="M13.7828 29.6719C11.9989 29.6719 10.3994 28.542 9.80509 26.859C9.6104 26.31 9.89777 25.7075 10.4478 25.5139C10.9947 25.3182 11.5993 25.6076 11.793 26.1566C12.0906 26.997 12.8908 27.5625 13.7828 27.5625C14.9456 27.5625 15.8922 26.616 15.8922 25.4531C15.8922 24.2903 14.9456 23.3438 13.7828 23.3438H12.4717C11.8898 23.3438 11.417 22.872 11.417 22.2891C11.417 21.7061 11.8898 21.2344 12.4717 21.2344H13.7828C14.9456 21.2344 15.8922 20.2878 15.8922 19.125C15.8922 17.9622 14.9456 17.0156 13.7828 17.0156C12.8908 17.0156 12.0906 17.5811 11.7929 18.4215C11.5993 18.9715 10.9937 19.2599 10.4478 19.0642C9.89777 18.8706 9.6104 18.2681 9.80502 17.7191C10.3994 16.0361 11.9989 14.9062 13.7828 14.9062C16.1095 14.9062 18.0016 16.7983 18.0016 19.125C18.0016 20.3836 17.4474 21.5156 16.5699 22.2891C17.4474 23.0626 18.0016 24.1945 18.0016 25.4531C18.0016 27.7798 16.1095 29.6719 13.7828 29.6719Z" fill="#FFF5F5"/>
<path d="M10.4458 19.0642C10.9917 19.2599 11.5973 18.9716 11.7909 18.4215C12.0886 17.5811 12.8889 17.0156 13.7808 17.0156C14.9437 17.0156 15.8902 17.9622 15.8902 19.125C15.8902 20.2878 14.9437 21.2344 13.7808 21.2344H12.4697C11.8878 21.2344 11.4151 21.706 11.415 22.2889H16.5681C17.4455 21.5154 17.9996 20.3835 17.9996 19.125C17.9996 16.7983 16.1075 14.9062 13.7808 14.9062C11.9969 14.9062 10.3974 16.0361 9.80311 17.7191C9.60841 18.2681 9.89578 18.8706 10.4458 19.0642Z" fill="#E3E7EA"/>
<path d="M24.3295 29.6717C23.7465 29.6717 23.2748 29.2 23.2748 28.6171V17.9311L21.7504 18.9477C21.2643 19.269 20.6102 19.1393 20.2879 18.6552C19.9644 18.1701 20.0953 17.5161 20.5804 17.1926L23.7444 15.0832C24.0679 14.8679 24.485 14.8474 24.827 15.0307C25.1699 15.2141 25.3842 15.5715 25.3842 15.9608V28.6171C25.3842 29.2 24.9125 29.6717 24.3295 29.6717Z" fill="#FFF5F5"/>
<path d="M21.7504 18.9477L23.2748 17.9311V22.2887H25.3842V15.9608C25.3842 15.5715 25.1699 15.2141 24.827 15.0307C24.485 14.8474 24.0679 14.868 23.7444 15.0832L20.5804 17.1926C20.0953 17.516 19.9644 18.17 20.2879 18.6552C20.6103 19.1393 21.2643 19.2691 21.7504 18.9477Z" fill="#E3E7EA"/>
</svg>
