<svg width="36" height="36" viewBox="0 0 36 36" fill="none" xmlns="http://www.w3.org/2000/svg">
<g clip-path="url(#clip0_20_239)">
<path d="M32.4576 3.02911L21.9573 0.0290837C21.7938 -0.0178159 21.6193 -0.00776095 21.4623 0.057561L3.46185 7.55777C3.18306 7.67443 3.0015 7.94703 3.00136 8.24932V27.7498C3.00136 28.1611 3.33261 28.4957 3.74388 28.4998C3.32966 28.5024 2.99595 28.8403 2.99855 29.2544C3.00052 29.5768 3.20823 29.8617 3.51438 29.9624L21.5148 35.9625C21.5914 35.9872 21.6714 35.9999 21.7519 36C21.8214 35.9995 21.8906 35.9894 21.9574 35.9699L32.4576 32.9698C32.7794 32.8782 33.0016 32.5845 33.0021 32.2498V3.74913C33.0015 3.41458 32.7794 3.1208 32.4576 3.02911ZM4.08737 28.4203L8.58748 26.1702C8.84125 26.0431 9.00149 25.7836 9.00149 25.4997V9.58578L22.5018 6.21069V31.3753L3.86531 28.5088C3.83009 28.5029 3.79451 28.4998 3.75879 28.4998C3.87291 28.4983 3.9852 28.4711 4.08737 28.4203Z" fill="#FF5722"/>
</g>
<defs>
<clipPath id="clip0_20_239">
<rect width="36" height="36" fill="white"/>
</clipPath>
</defs>
</svg>
