<svg width="36" height="36" viewBox="0 0 36 36" fill="none" xmlns="http://www.w3.org/2000/svg">
<path d="M34.875 7.87573H19.125C18.504 7.87573 18 8.37973 18 9.00073C18 9.62173 18.504 10.1257 19.125 10.1257H31.5968L24.6847 15.501L19.728 12.3487L18.522 14.2477L24.147 17.8252C24.3293 17.9422 24.5408 18.0007 24.75 18.0007C24.993 18.0007 25.2383 17.922 25.4408 17.7645L33.75 11.3002V25.8757H19.125C18.504 25.8757 18 26.3797 18 27.0007C18 27.6217 18.504 28.1257 19.125 28.1257H34.875C35.496 28.1257 36 27.6217 36 27.0007V9.00073C36 8.37973 35.496 7.87573 34.875 7.87573Z" fill="#FFB900"/>
<path d="M19.8428 1.38453C19.5863 1.17078 19.242 1.07853 18.918 1.14603L0.918 4.52103C0.38475 4.62003 0 5.08353 0 5.62578V30.3758C0 30.9158 0.38475 31.3815 0.918 31.4805L18.918 34.8555C18.9855 34.869 19.0553 34.8758 19.125 34.8758C19.386 34.8758 19.6403 34.7858 19.8428 34.617C20.1015 34.4033 20.25 34.0838 20.25 33.7508V2.25078C20.25 1.91553 20.1015 1.59828 19.8428 1.38453Z" fill="#FFB900"/>
<path d="M10.125 25.8757C7.0245 25.8757 4.5 22.8472 4.5 19.1257C4.5 15.4042 7.0245 12.3757 10.125 12.3757C13.2255 12.3757 15.75 15.4042 15.75 19.1257C15.75 22.8472 13.2255 25.8757 10.125 25.8757ZM10.125 14.6257C8.26425 14.6257 6.75 16.644 6.75 19.1257C6.75 21.6075 8.26425 23.6257 10.125 23.6257C11.9858 23.6257 13.5 21.6075 13.5 19.1257C13.5 16.644 11.9858 14.6257 10.125 14.6257Z" fill="white"/>
</svg>
