<svg width="601" height="514" viewBox="0 0 601 514" fill="none" xmlns="http://www.w3.org/2000/svg">
<g clip-path="url(#clip0_5_5036)">
<path d="M474.101 389.45C467.475 379.146 413.477 408.367 343.955 442.47C274.433 476.574 219.997 508.127 222.357 512.951C224.716 517.775 272.539 506.32 342.061 472.216C411.583 438.113 476.999 393.939 474.101 389.45Z" fill="#7DB38F"/>
<path d="M462.436 495.855C461.417 486.135 437.127 489.21 406.356 490.623C375.585 492.037 350.785 496.672 350.989 500.971C351.192 505.27 370.648 513.038 401.434 511.625C432.204 510.226 462.888 500.097 462.436 495.855Z" fill="#7DB28F"/>
<path d="M233.628 464.113C234.444 474.534 221.832 481.821 211.58 479.795C201.343 477.784 193.435 469.855 186.169 462.35C178.902 454.844 170.892 446.988 160.611 445.181C143.675 442.223 127.801 456.695 110.661 455.441C93.6666 454.203 81.9583 438.506 72.0557 424.632C62.1531 410.757 48.6972 395.804 31.7172 397.218C25.5135 397.728 19.6156 400.482 13.3828 400.672C7.16459 400.861 -0.0730379 396.912 -0.0147874 390.689C0.0580258 384.582 6.64034 380.968 12.2761 378.65C28.8484 371.859 45.4206 365.067 61.9929 358.261C80.4729 350.683 101.56 343.09 119.763 351.339C135.651 358.524 145.233 376.304 161.703 382.002C183.343 389.494 208.449 373.331 229.478 382.381C245.322 389.202 252.589 408.629 250.71 425.783C248.846 442.937 239.89 458.4 231.123 473.266" fill="#00B53C"/>
<path d="M1.95117 392.481C25.5863 379.408 65.5462 381.041 90.6813 390.922C106.424 397.116 120.666 407.711 137.369 410.408C151.844 412.739 166.567 408.863 181.217 409.14C204.983 409.591 229.798 426.614 243.807 445.852" stroke="#FFF9F7" stroke-width="0.65" stroke-miterlimit="10"/>
<path d="M143.311 410.742C143.311 410.742 131.85 358.232 108.448 348.365" stroke="#FFF9F7" stroke-width="0.65" stroke-miterlimit="10"/>
<path d="M56.0952 383.678C56.0952 383.678 53.5904 396.503 31.7319 397.218" stroke="#FFF9F7" stroke-width="0.65" stroke-miterlimit="10"/>
<path d="M206.207 415.829C206.207 415.829 209.105 390.849 189.678 383.693" stroke="#FFF9F7" stroke-width="0.65" stroke-miterlimit="10"/>
<path d="M226.391 427.722C226.391 427.722 211.042 453.095 179.819 455.646" stroke="#FFF9F7" stroke-width="0.65" stroke-miterlimit="10"/>
<path d="M91.1182 348.103C91.1182 348.103 110.574 361.205 121.001 406.152" stroke="#FFF9F7" stroke-width="0.65" stroke-miterlimit="10"/>
<path d="M137.355 410.408C137.355 410.408 113.996 441.188 86.8516 441.917" stroke="#FFF9F7" stroke-width="0.65" stroke-miterlimit="10"/>
<path d="M57.0854 407.143C57.0854 407.143 85.8758 405.758 94.2056 393.225" stroke="#FFF9F7" stroke-width="0.65" stroke-miterlimit="10"/>
<path d="M21.5234 374.701C21.5234 374.701 26.9844 371.815 35.9113 382.425" stroke="#FFF9F7" stroke-width="0.65" stroke-miterlimit="10"/>
<path d="M52.8184 362.211C52.8184 362.211 62.0219 367.035 66.4635 383.839" stroke="#FFF9F7" stroke-width="0.65" stroke-miterlimit="10"/>
<path d="M160.611 445.181C160.611 445.181 202.872 442.193 199.275 412.535" stroke="#FFF9F7" stroke-width="0.65" stroke-miterlimit="10"/>
<path d="M161.732 382.002C161.732 382.002 174.169 393.123 167.354 408.061" stroke="#FFF9F7" stroke-width="0.65" stroke-miterlimit="10"/>
<path d="M224.891 381.245C224.891 381.245 239.308 408.542 232.827 431.117" stroke="#FFF9F7" stroke-width="0.65" stroke-miterlimit="10"/>
<path d="M414.438 361.22C404.521 356.877 404.04 341.778 410.885 333.383C417.729 325.003 428.84 321.651 439.238 318.678C449.65 315.705 460.733 312.222 467.417 303.696C478.412 289.661 472.951 268.048 482.475 252.978C491.911 238.04 511.978 235.008 529.497 232.735C547.016 230.476 567.244 225.477 574.263 209.256C576.826 203.324 577.205 196.591 580.073 190.805C582.957 185.019 590.092 180.326 595.743 183.445C601.277 186.491 601.364 194.288 600.723 200.584C598.83 219.064 596.922 237.544 595.029 256.024C592.918 276.646 589.525 299.644 573.098 312.266C558.768 323.284 537.842 323.356 524.575 335.642C507.158 351.776 509.634 382.644 491.081 397.451C477.101 408.6 455.81 405.744 441.058 395.644C426.306 385.544 416.579 369.79 407.273 354.516" fill="#00B53C"/>
<path d="M593.151 184.334C593.529 212.345 572.501 248.11 551.181 266.255C537.813 277.623 521.182 285.464 510.551 299.426C501.348 311.522 497.678 326.883 490.266 340.16C478.222 361.686 450.539 376.056 426.132 379.452" stroke="#FFF9F7" stroke-width="0.6738" stroke-miterlimit="10"/>
<path d="M507.333 304.716C507.333 304.716 560.894 319.902 581.34 303.346" stroke="#FFF9F7" stroke-width="0.6738" stroke-miterlimit="10"/>
<path d="M574.714 238.171C574.714 238.171 564.229 229.601 574.263 209.256" stroke="#FFF9F7" stroke-width="0.6738" stroke-miterlimit="10"/>
<path d="M471.931 359.763C471.931 359.763 493.324 374.643 509.357 360.36" stroke="#FFF9F7" stroke-width="0.6738" stroke-miterlimit="10"/>
<path d="M451.194 372.413C451.194 372.413 435.525 345.975 448.471 316.157" stroke="#FFF9F7" stroke-width="0.6738" stroke-miterlimit="10"/>
<path d="M590.063 287.621C590.063 287.621 568.584 299.003 522.435 286.571" stroke="#FFF9F7" stroke-width="0.6738" stroke-miterlimit="10"/>
<path d="M510.551 299.426C510.551 299.426 493.862 263.005 506.474 237.821" stroke="#FFF9F7" stroke-width="0.6738" stroke-miterlimit="10"/>
<path d="M552.797 227.604C552.797 227.604 539.982 254.61 547.351 268.368" stroke="#FFF9F7" stroke-width="0.6738" stroke-miterlimit="10"/>
<path d="M599.82 210.932C599.82 210.932 599.791 217.33 585.738 220.317" stroke="#FFF9F7" stroke-width="0.6738" stroke-miterlimit="10"/>
<path d="M595.917 245.676C595.917 245.676 587.005 251.725 569.486 247.571" stroke="#FFF9F7" stroke-width="0.6738" stroke-miterlimit="10"/>
<path d="M467.417 303.696C467.417 303.696 449.476 343.819 478.324 355.041" stroke="#FFF9F7" stroke-width="0.6738" stroke-miterlimit="10"/>
<path d="M524.575 335.628C524.575 335.628 508.338 341.559 498.027 328.035" stroke="#FFF9F7" stroke-width="0.6738" stroke-miterlimit="10"/>
<path d="M494.372 393.764C494.372 393.764 462.393 393.604 444.932 376.64" stroke="#FFF9F7" stroke-width="0.6738" stroke-miterlimit="10"/>
<path d="M205.537 415.625C202.537 422.198 193.057 422.023 187.989 417.097C182.935 412.185 181.144 404.549 179.586 397.407C178.013 390.266 176.149 382.629 170.994 377.82C162.519 369.906 148.815 372.894 139.641 365.942C130.539 359.048 129.214 345.363 128.296 333.427C127.379 321.476 124.816 307.616 114.855 302.326C111.215 300.387 107.006 299.921 103.453 297.779C99.9139 295.636 97.1761 290.652 99.2877 286.921C101.356 283.277 106.249 283.467 110.166 284.123C121.685 286.017 133.219 287.927 144.738 289.821C157.596 291.934 171.912 294.995 179.353 306.538C185.848 316.608 185.295 330.789 192.62 340.189C202.231 352.519 221.643 351.863 230.395 364.922C236.992 374.759 234.589 389.085 227.847 398.748C221.104 408.411 210.954 414.474 201.11 420.259" fill="#0090AD"/>
<path d="M99.7827 288.685C117.345 289.355 139.16 304.789 149.922 319.844C156.664 329.273 161.106 340.802 169.552 348.468C176.863 355.113 186.401 358.101 194.498 363.566C207.648 372.442 215.861 391.665 217.303 408.309" stroke="#FFF9F7" stroke-width="0.4395" stroke-miterlimit="10"/>
<path d="M127.452 328.851C127.452 328.851 143.267 337.347 157.101 331.678" stroke="#FFF9F7" stroke-width="0.4395" stroke-miterlimit="10"/>
<path d="M191.542 362.779C191.542 362.779 149.835 370.46 134.806 360.608" stroke="#FFF9F7" stroke-width="0.4395" stroke-miterlimit="10"/>
<path d="M132.986 302.967C132.986 302.967 127.321 309.788 114.855 302.311" stroke="#FFF9F7" stroke-width="0.4395" stroke-miterlimit="10"/>
<path d="M206.25 376.625C206.25 376.625 216.182 362.619 207.692 351.295" stroke="#FFF9F7" stroke-width="0.4395" stroke-miterlimit="10"/>
<path d="M213.59 391.097C213.59 391.097 196.581 400.832 178.261 391.067" stroke="#FFF9F7" stroke-width="0.4395" stroke-miterlimit="10"/>
<path d="M164.397 294.208C164.397 294.208 170.921 309.132 161.82 339.985" stroke="#FFF9F7" stroke-width="0.4395" stroke-miterlimit="10"/>
<path d="M116.632 285.055C116.632 285.055 120.637 285.288 122.107 294.907" stroke="#FFF9F7" stroke-width="0.4395" stroke-miterlimit="10"/>
<path d="M138.287 288.859C138.287 288.859 141.825 295.097 138.724 306.829" stroke="#FFF9F7" stroke-width="0.4395" stroke-miterlimit="10"/>
<path d="M170.994 377.834C170.994 377.834 195.62 391.315 203.469 372.15" stroke="#FFF9F7" stroke-width="0.4395" stroke-miterlimit="10"/>
<path d="M192.62 340.175C192.62 340.175 195.882 351.368 187.101 357.911" stroke="#FFF9F7" stroke-width="0.4395" stroke-miterlimit="10"/>
<path d="M228.196 362.561C228.196 362.561 227.191 384.218 216.065 395.483" stroke="#FFF9F7" stroke-width="0.4395" stroke-miterlimit="10"/>
<path d="M418.253 301.203C411.059 300.664 407.928 291.701 410.782 285.245C413.637 278.788 420.161 274.474 426.321 270.525C432.481 266.575 438.976 262.174 441.699 255.674C446.17 244.962 438.626 233.142 441.961 222.124C445.267 211.194 457.63 205.204 468.509 200.19C479.387 195.177 491.489 187.977 493.003 176.784C493.557 172.689 492.537 168.579 493.309 164.513C494.081 160.447 497.809 156.147 502.032 156.832C506.168 157.503 507.682 162.166 508.44 166.072C510.653 177.557 512.881 189.026 515.095 200.511C517.57 213.321 519.667 227.808 511.425 238.797C504.231 248.387 490.761 252.788 484.499 262.917C476.271 276.223 483.625 294.208 474.421 306.96C467.489 316.564 453.233 319.29 441.83 316.302C430.442 313.314 421.224 305.896 412.384 298.667" fill="#0090AD"/>
<path d="M500.532 157.896C505.993 174.613 499.105 200.438 488.736 215.77C482.241 225.374 472.979 233.536 468.727 244.131C465.043 253.298 465.553 263.281 463.237 272.784C459.48 288.203 444.32 302.573 429.219 309.715" stroke="#FFF9F7" stroke-width="0.4395" stroke-miterlimit="10"/>
<path d="M472.499 197.814C472.499 197.814 470.023 215.609 480.129 226.613" stroke="#FFF9F7" stroke-width="0.4395" stroke-miterlimit="10"/>
<path d="M462.917 269.738C462.917 269.738 441.247 233.259 445.267 215.726" stroke="#FFF9F7" stroke-width="0.4395" stroke-miterlimit="10"/>
<path d="M498.668 194.025C498.668 194.025 490.309 191.067 492.989 176.784" stroke="#FFF9F7" stroke-width="0.4395" stroke-miterlimit="10"/>
<path d="M455.053 288.349C455.053 288.349 471.61 292.809 479.285 280.902" stroke="#FFF9F7" stroke-width="0.4395" stroke-miterlimit="10"/>
<path d="M444.043 300.256C444.043 300.256 429.015 287.664 431.811 267.085" stroke="#FFF9F7" stroke-width="0.4395" stroke-miterlimit="10"/>
<path d="M517.774 220.463C517.774 220.463 506.051 231.772 473.984 233.929" stroke="#FFF9F7" stroke-width="0.4395" stroke-miterlimit="10"/>
<path d="M509.78 172.456C509.78 172.456 510.945 176.303 502.44 181.011" stroke="#FFF9F7" stroke-width="0.4395" stroke-miterlimit="10"/>
<path d="M513.726 194.098C513.726 194.098 509.11 199.593 497.037 200.744" stroke="#FFF9F7" stroke-width="0.4395" stroke-miterlimit="10"/>
<path d="M441.699 255.674C441.699 255.674 437.607 283.467 458.286 284.181" stroke="#FFF9F7" stroke-width="0.4395" stroke-miterlimit="10"/>
<path d="M484.484 262.902C484.484 262.902 475.12 269.84 465.96 263.879" stroke="#FFF9F7" stroke-width="0.4395" stroke-miterlimit="10"/>
<path d="M475.848 304.06C475.848 304.06 455.198 310.618 440.796 304.089" stroke="#FFF9F7" stroke-width="0.4395" stroke-miterlimit="10"/>
<path d="M404.448 14.8949L248.103 105.24C243.691 107.79 240.123 113.984 240.123 119.085V490.23C240.123 495.331 243.705 497.4 248.103 494.85L404.448 404.519C408.86 401.969 412.428 395.775 412.428 390.674V19.5295C412.443 14.414 408.86 12.3444 404.448 14.8949Z" fill="#45644F"/>
<path d="M248.103 105.24L404.448 14.9095C408.394 12.636 411.656 14.0497 412.312 18.0138C411.715 13.2627 408.438 7.97227 404.448 5.66956L397.938 1.90944C393.526 -0.641036 386.376 -0.641036 381.963 1.90944L225.633 92.2544C223.434 93.5223 221.425 95.7085 219.983 98.2152L242.453 111.201C243.909 108.694 245.904 106.508 248.103 105.24Z" fill="#374F3F"/>
<path d="M217.653 477.244C217.653 482.345 221.235 488.539 225.633 491.09L232.143 494.85C236.133 497.153 242.336 497.357 246.764 495.491C243.006 496.92 240.138 494.792 240.138 490.23V119.085C240.138 116.535 241.026 113.708 242.482 111.201L220.012 98.2153C218.57 100.722 217.667 103.549 217.667 106.1L217.653 477.244Z" fill="#26382C"/>
<path d="M252.414 154.704L400.166 69.3292C402.817 67.7989 404.957 69.0377 404.957 72.0982V346.733C404.957 349.793 402.817 353.51 400.166 355.04L252.414 440.415C249.763 441.946 247.623 440.707 247.623 437.646V163.012C247.623 159.951 249.763 156.235 252.414 154.704Z" fill="white"/>
<path d="M326.29 74.1533C324.746 75.0569 323.479 77.2284 323.479 79.0211C323.479 80.8137 324.732 81.5424 326.29 80.6388C327.848 79.7498 329.101 77.5636 329.101 75.771C329.086 73.9784 327.834 73.2497 326.29 74.1533Z" fill="#374F3F"/>
<path d="M326.29 410.917C320.159 414.459 315.193 423.072 315.193 430.141C315.193 437.224 320.159 440.095 326.29 436.553C332.421 433.012 337.387 424.398 337.387 417.33C337.372 410.247 332.406 407.376 326.29 410.917Z" fill="#374F3F"/>
<path d="M299.742 102.719C296.64 104.511 294.121 108.869 294.121 112.454C294.121 116.039 296.64 117.497 299.742 115.704C302.844 113.912 305.363 109.554 305.363 105.969C305.363 102.383 302.844 100.926 299.742 102.719Z" fill="#374F3F"/>
<path d="M313.489 101.494C313.489 103.884 315.28 104.788 317.479 103.52L354.454 82.1545C356.653 80.8865 358.444 77.9134 358.444 75.5232C358.444 73.1331 356.653 72.2295 354.454 73.4974L317.494 94.8631C315.28 96.131 313.489 99.1042 313.489 101.494Z" fill="#374F3F"/>
<path d="M230.089 166.582C232.565 168.011 234.589 171.508 234.589 174.379C234.589 177.251 232.579 178.416 230.089 176.974C227.599 175.545 225.589 172.048 225.589 169.176C225.589 166.32 227.599 165.154 230.089 166.582Z" fill="#374F3F"/>
<path d="M230.089 201.24C232.565 202.668 234.589 206.166 234.589 209.037C234.589 211.908 232.579 213.074 230.089 211.631C227.599 210.203 225.589 206.705 225.589 203.834C225.589 200.977 227.599 199.811 230.089 201.24Z" fill="#374F3F"/>
<path d="M228.691 167.282C231.167 168.71 233.191 172.208 233.191 175.079C233.191 177.95 231.181 179.116 228.691 177.674C226.201 176.245 224.191 172.747 224.191 169.876C224.206 167.005 226.216 165.839 228.691 167.282Z" fill="#45644F"/>
<path d="M228.691 201.939C231.167 203.368 233.191 206.866 233.191 209.737C233.191 212.608 231.181 213.774 228.691 212.331C226.201 210.903 224.191 207.405 224.191 204.534C224.206 201.663 226.216 200.497 228.691 201.939Z" fill="#45644F"/>
<path d="M434.913 80.7848C434.913 77.7242 432.772 76.4854 430.122 78.0157L412.443 88.2321L282.384 163.391C279.733 164.921 277.593 168.638 277.593 171.698V446.333C277.593 449.393 279.733 450.632 282.384 449.102L412.501 373.929L430.136 363.741C432.787 362.211 434.928 358.495 434.928 355.434L434.913 80.7848Z" fill="white" stroke="#27DE64" stroke-miterlimit="10"/>
<path d="M280.243 450.676C279.632 450.676 279.049 450.53 278.539 450.224C277.331 449.525 276.675 448.14 276.675 446.318V171.684C276.675 168.273 278.976 164.28 281.932 162.575L411.991 87.416L412.909 89.0192L282.85 164.178C280.505 165.533 278.525 168.973 278.525 171.684V446.318C278.525 447.44 278.874 448.271 279.471 448.621C280.068 448.971 280.971 448.84 281.932 448.286L412.05 373.112L412.967 374.716L282.85 449.889C281.932 450.414 281.059 450.676 280.243 450.676Z" fill="#27DE64" stroke="#27DE64" stroke-miterlimit="10"/>
<path d="M412.952 374.716L412.035 373.112L429.67 362.925C432.015 361.57 433.995 358.13 433.995 355.419V80.7848C433.995 79.6626 433.646 78.8318 433.049 78.482C432.452 78.1323 431.549 78.2634 430.588 78.8173L412.909 89.0337L411.991 87.4306L429.67 77.2141C431.243 76.3105 432.772 76.1793 433.981 76.8789C435.19 77.5785 435.845 78.963 435.845 80.7848V355.419C435.845 358.815 433.544 362.823 430.588 364.528L412.952 374.716Z" fill="#27DE64" stroke="#27DE64" stroke-miterlimit="10"/>
<path d="M356.245 144.605C372.803 135.044 386.215 142.798 386.215 161.919C386.215 181.04 372.803 204.3 356.245 213.861C339.688 223.422 326.275 215.668 326.275 196.547C326.29 177.426 339.702 154.165 356.245 144.605Z" fill="#27DE64"/>
<path d="M356.245 159.66C361.619 156.555 365.973 159.077 365.973 165.271C365.973 171.479 361.619 179.029 356.245 182.118C350.872 185.223 346.518 182.701 346.518 176.507C346.532 170.299 350.886 162.764 356.245 159.66Z" fill="#27DE64"/>
<path d="M375.206 192.743C375.206 182.556 368.056 178.416 359.231 183.517L353.712 186.709C344.887 191.81 337.736 204.198 337.736 214.4V217.14C342.833 218.831 349.255 217.912 356.245 213.875C363.439 209.722 370.036 202.974 375.191 195.118V192.743H375.206Z" fill="#27DE64"/>
<path opacity="0.7" d="M356.245 159.66C361.619 156.555 365.973 159.077 365.973 165.271C365.973 171.479 361.619 179.029 356.245 182.118C350.872 185.223 346.518 182.701 346.518 176.507C346.532 170.299 350.886 162.764 356.245 159.66Z" fill="white"/>
<path opacity="0.7" d="M375.206 192.743C375.206 182.556 368.056 178.416 359.231 183.517L353.712 186.709C344.887 191.81 337.736 204.198 337.736 214.4V217.14C342.833 218.831 349.255 217.912 356.245 213.875C363.439 209.722 370.036 202.974 375.191 195.118V192.743H375.206Z" fill="white"/>
<path d="M298.271 256.053L336.833 233.769C338.595 232.749 340.022 233.58 340.022 235.62V236.888C340.022 238.928 338.595 241.406 336.833 242.426L298.271 264.71C296.509 265.73 295.082 264.9 295.082 262.859V261.591C295.068 259.551 296.509 257.073 298.271 256.053Z" fill="#27DE64"/>
<path opacity="0.1" d="M298.271 256.053L336.833 233.769C338.595 232.749 340.022 233.58 340.022 235.62V236.888C340.022 238.928 338.595 241.406 336.833 242.426L298.271 264.71C296.509 265.73 295.082 264.9 295.082 262.859V261.591C295.068 259.551 296.509 257.073 298.271 256.053Z" fill="black"/>
<path d="M296.67 282.942L413.346 215.522C414.234 215.012 414.947 215.42 414.947 216.44V230.067C414.947 231.087 414.234 232.326 413.346 232.836L296.67 300.256C295.781 300.766 295.068 300.358 295.068 299.338V285.711C295.068 284.691 295.796 283.452 296.67 282.942Z" fill="#27DE64"/>
<path opacity="0.2" d="M296.67 282.942L413.346 215.522C414.234 215.012 414.947 215.42 414.947 216.44V230.067C414.947 231.087 414.234 232.326 413.346 232.836L296.67 300.256C295.781 300.766 295.068 300.358 295.068 299.338V285.711C295.068 284.691 295.796 283.452 296.67 282.942Z" fill="white"/>
<path d="M298.271 316.652L336.833 294.368C338.595 293.348 340.022 294.179 340.022 296.219V297.487C340.022 299.528 338.595 302.005 336.833 303.025L298.271 325.309C296.509 326.329 295.082 325.499 295.082 323.458V322.19C295.068 320.15 296.509 317.672 298.271 316.652Z" fill="#27DE64"/>
<path opacity="0.1" d="M298.271 316.652L336.833 294.368C338.595 293.348 340.022 294.179 340.022 296.219V297.487C340.022 299.528 338.595 302.005 336.833 303.025L298.271 325.309C296.509 326.329 295.082 325.499 295.082 323.458V322.19C295.068 320.15 296.509 317.672 298.271 316.652Z" fill="black"/>
<path d="M296.67 343.556L413.346 276.136C414.234 275.626 414.947 276.034 414.947 277.054V290.681C414.947 291.701 414.234 292.94 413.346 293.45L296.67 360.87C295.781 361.38 295.068 360.972 295.068 359.952V346.325C295.068 345.305 295.796 344.066 296.67 343.556Z" fill="#27DE64"/>
<path opacity="0.2" d="M296.67 343.556L413.346 276.136C414.234 275.626 414.947 276.034 414.947 277.054V290.681C414.947 291.701 414.234 292.94 413.346 293.45L296.67 360.87C295.781 361.38 295.068 360.972 295.068 359.952V346.325C295.068 345.305 295.796 344.066 296.67 343.556Z" fill="white"/>
<path d="M343.226 351.28L389.288 324.668C391.05 323.647 392.477 324.478 392.477 326.519V340.772C392.477 342.812 391.05 345.29 389.288 346.31L343.226 372.923C341.464 373.943 340.037 373.112 340.037 371.072V356.804C340.023 354.778 341.45 352.3 343.226 351.28Z" fill="#27DE64"/>
<path opacity="0.1" d="M343.226 351.28L389.288 324.668C391.05 323.647 392.477 324.478 392.477 326.519V340.772C392.477 342.812 391.05 345.29 389.288 346.31L343.226 372.923C341.464 373.943 340.037 373.112 340.037 371.072V356.804C340.023 354.778 341.45 352.3 343.226 351.28Z" fill="black"/>
<path d="M340.198 260.104C340.198 260.104 331.679 244.189 324.295 241.347C324.295 241.347 321.456 235.94 329.13 238.782C329.13 238.782 327.514 237.864 326.582 235.401C326.407 234.964 326.786 234.498 327.252 234.527C330.688 234.731 342.44 236.888 347.028 256.679L340.489 261.518" fill="#FFB2B6"/>
<path d="M436.336 496.077H444.811V491.501H436.336V496.077Z" fill="white"/>
<path d="M383.073 496.077H391.549V491.501H383.073V496.077Z" fill="white"/>
<path d="M445.456 494.85V501.175H425.404C425.389 501.19 422.054 490.711 445.456 494.85Z" fill="white"/>
<path d="M392.07 494.85V501.175H372.017C372.003 501.19 368.668 490.711 392.07 494.85Z" fill="white"/>
<path d="M440.826 352.271L438.161 435.446C438.088 437.501 438.219 439.556 438.54 441.582L446.345 491.673H431.171L420.584 439.381C420.278 437.909 420.089 436.408 419.987 434.907L416.87 385.253C416.827 384.568 415.88 384.422 415.632 385.063L399.41 427.853C398.973 428.99 398.696 430.199 398.594 431.409L393.235 491.673H380.129L379.459 426.177C379.444 425.215 379.546 424.268 379.736 423.32L394.619 351.586L440.826 352.271Z" fill="url(#paint0_linear_5_5036)"/>
<path d="M396.002 300.009L366.44 296.307C363.425 296.249 360.586 294.879 358.649 292.561L335.421 261.067L349.27 251.346L366.92 275.889C368.799 278.497 371.755 280.1 374.959 280.246L438.336 276.136L445.617 367.705L389.463 361.016L396.002 300.009Z" fill="#00E64D"/>
<path d="M439.617 286.367L463.733 320.602C466.791 324.945 465.757 330.949 461.432 334.024L437.899 350.712L428.593 336.225L446.913 326.242C447.408 325.965 447.525 325.309 447.132 324.886L432.03 308.461L433.413 284.312L436.166 281.558L439.617 286.367Z" fill="#00E64D"/>
<path d="M402.672 249.655C402.672 249.655 399.512 252.57 397.327 256.213L399.031 257.671L396.599 264.229L408.002 267.144L416.011 247.469L402.672 249.655Z" fill="#FFB2B6"/>
<path d="M415.924 237.165C411.613 235.78 406.807 237.879 403.822 242.455C400.837 247.046 399.774 253.94 401.143 259.842C398.303 258.939 395.143 260.367 393.221 263.442C391.298 266.517 390.687 271.093 391.691 274.941C389.23 275.582 386.653 276.296 384.672 278.453C382.692 280.61 381.541 284.706 382.794 287.766C384.192 291.191 387.57 291.512 390.395 291.424C408.453 290.827 426.496 290.244 444.554 289.646C445.966 289.602 447.437 289.53 448.704 288.67C451.136 287.023 452.199 282.301 450.874 278.993C449.563 275.684 446.141 274.475 443.869 276.5C446.796 273.935 447.932 268.004 446.287 263.719C444.656 259.449 440.505 257.481 437.36 259.478C440.374 254.493 439.777 246.463 436.792 241.435C433.807 236.407 429.001 234.104 424.341 233.871C419.681 233.638 415.094 235.226 410.565 236.8C410.536 238.943 410.521 241.085 410.492 243.228" fill="#452B2C"/>
</g>
<defs>
<linearGradient id="paint0_linear_5_5036" x1="416.707" y1="369.045" x2="411.602" y2="489.281" gradientUnits="userSpaceOnUse">
<stop stop-color="#26A450"/>
<stop offset="0.2124" stop-color="#2FAF5A"/>
<stop offset="0.4732" stop-color="#3AD16D"/>
<stop offset="0.7581" stop-color="#41E778"/>
<stop offset="1" stop-color="#3FE677"/>
</linearGradient>
<clipPath id="clip0_5_5036">
<rect width="601" height="514" fill="white"/>
</clipPath>
</defs>
</svg>
