<svg width="882" height="374" viewBox="0 0 882 374" fill="none" xmlns="http://www.w3.org/2000/svg">
<path d="M897.471 120.019C872.67 95.1793 812.942 65.9805 724.329 79.1479C695.949 83.3629 668.756 96.7284 640.087 95.3774C583.866 92.7115 549.857 30.9096 498.06 8.8619C451.604 -10.9162 396.498 4.66492 355.312 33.8997C314.127 63.1345 283.336 104.366 250.28 142.571C217.223 180.776 179.383 217.702 131.435 233.482C106.453 241.714 79.7457 243.803 54.8903 252.431C30.5612 260.859 6.80064 277.899 0.391316 302.723C0.11455 303.795 0.000144243 304.903 0.000430094 306.01L0.017985 374H897.471C897.471 374 900.906 123.459 897.471 120.019Z" fill="url(#paint0_linear_5_5033)"/>
<defs>
<linearGradient id="paint0_linear_5_5033" x1="373.83" y1="18.5944" x2="512.1" y2="438.767" gradientUnits="userSpaceOnUse">
<stop stop-color="#A6FFC4"/>
<stop offset="0.9892" stop-color="#DBFFE7"/>
</linearGradient>
</defs>
</svg>
