<svg width="20" height="20" viewBox="0 0 20 20" fill="none" xmlns="http://www.w3.org/2000/svg">
<path fill-rule="evenodd" clip-rule="evenodd" d="M13.8353 5.45881C12.8033 4.47437 11.4253 3.93556 9.99927 3.95886C7.39102 3.95886 5.1772 5.71714 4.38556 8.08651L4.38551 8.08648C3.967 9.32805 3.967 10.6726 4.38551 11.9141L4.3855 11.9141H4.38556C5.1772 14.2835 7.39102 16.0418 9.99927 16.0418C11.3506 16.0418 12.5061 15.6946 13.4033 15.0863V15.0849C13.9241 14.7394 14.3695 14.2921 14.7127 13.7698C15.056 13.2475 15.2899 12.6612 15.4004 12.0461H9.99921V8.19482H19.4295C19.5449 8.8664 19.6025 9.54665 19.6017 10.2281C19.6017 13.271 18.5142 15.8446 16.6268 17.5848H16.625L16.6268 17.5862C14.9699 19.1139 12.6978 20 9.99927 20C8.14573 19.9999 6.3287 19.4847 4.75102 18.5118C3.17335 17.5389 1.89712 16.1466 1.06484 14.4905L1.06479 14.4904C0.364638 13.0972 0 11.5596 0 10.0003C0 8.44106 0.364638 6.9034 1.06479 5.51018H1.06485C1.89713 3.85402 3.17335 2.46178 4.75102 1.48889C6.3287 0.515993 8.14573 0.000740549 9.99927 0.000656072C12.482 -0.0283417 14.8795 0.904899 16.6893 2.60474L13.8353 5.45881Z" fill="#EA4335"/>
</svg>
