<svg width="73" height="75" viewBox="0 0 73 75" fill="none" xmlns="http://www.w3.org/2000/svg">
<path d="M71.7819 32.5199C68.6867 15.8475 54.0683 3.22217 36.4991 3.22217C18.9299 3.22217 4.31152 15.8475 1.21631 32.5199L9.44463 62.6912C16.0238 70.2335 25.7044 75.0001 36.4991 75.0001C47.2939 75.0001 56.9744 70.2335 63.5536 62.6912L71.7819 32.5199Z" fill="#2A8C4B"/>
<path d="M18.0106 29.74C17.3059 29.74 16.7343 29.1686 16.7343 28.4637V25.7052C16.7343 24.7339 15.9441 23.9436 14.9728 23.9436C14.0015 23.9436 13.2113 24.7339 13.2113 25.7052V28.4637C13.2113 29.1686 12.6399 29.74 11.935 29.74C11.2303 29.74 10.6587 29.1686 10.6587 28.4637V25.7052C10.6587 23.3265 12.5939 21.3911 14.9728 21.3911C17.3517 21.3911 19.2869 23.3265 19.2869 25.7052V28.4637C19.2869 29.1686 18.7155 29.74 18.0106 29.74Z" fill="#DEECFF"/>
<path d="M61.0648 29.74C60.3601 29.74 59.7885 29.1686 59.7885 28.4637V25.7052C59.7885 24.7339 58.9983 23.9436 58.027 23.9436C57.0557 23.9436 56.2655 24.7339 56.2655 25.7052V28.4637C56.2655 29.1686 55.6941 29.74 54.9892 29.74C54.2843 29.74 53.7129 29.1686 53.7129 28.4637V25.7052C53.7129 23.3265 55.6481 21.3911 58.027 21.3911C60.4058 21.3911 62.3411 23.3265 62.3411 25.7052V28.4637C62.341 29.1686 61.7695 29.74 61.0648 29.74Z" fill="#DEECFF"/>
<path d="M16.114 25.2196C15.86 25.2196 15.6038 25.144 15.3805 24.9869C14.8042 24.5811 14.6659 23.785 15.0717 23.2085L27.9993 4.84629C29.9728 2.04287 33.0709 0.435059 36.4993 0.435059C39.9276 0.435059 43.0257 2.04287 44.9993 4.84614L47.8245 8.85908C48.2304 9.4355 48.092 10.2316 47.5158 10.6374C46.9393 11.0433 46.1432 10.9049 45.7376 10.3286L42.9123 6.31567C41.4232 4.20073 39.0859 2.9877 36.4993 2.9877C33.9126 2.9877 31.5753 4.20073 30.0862 6.31567L17.1586 24.6779C16.91 25.031 16.5151 25.2196 16.114 25.2196Z" fill="#BEF7D1"/>
<path d="M36.5 10.5565C39.4151 10.5565 41.7782 8.19338 41.7782 5.27827C41.7782 2.36316 39.4151 0 36.5 0C33.5848 0 31.2217 2.36316 31.2217 5.27827C31.2217 8.19338 33.5848 10.5565 36.5 10.5565Z" fill="#39FF7B"/>
<path d="M37.2973 6.79375C38.7548 6.79375 39.9363 5.6122 39.9363 4.15469C39.9363 2.69717 38.7548 1.51562 37.2973 1.51562C35.8398 1.51562 34.6582 2.69717 34.6582 4.15469C34.6582 5.6122 35.8398 6.79375 37.2973 6.79375Z" fill="#67FF9A"/>
<path d="M56.8851 25.2199C56.4839 25.2199 56.089 25.0313 55.8405 24.6782L45.7382 10.3289C45.3323 9.75251 45.4707 8.95636 46.047 8.5506C46.6234 8.14499 47.4194 8.28312 47.8252 8.85939L57.9275 23.2087C58.3334 23.7851 58.195 24.5813 57.6187 24.987C57.3953 25.1444 57.1391 25.2199 56.8851 25.2199Z" fill="#D3FBE0"/>
<path d="M72.3738 38.1241C72.3218 36.2151 72.1209 34.3434 71.7824 32.5199C68.6034 29.5129 64.3161 27.666 59.6053 27.666H26.052C25.694 27.9484 25.0957 28.5284 25.0828 29.2602C25.0724 29.8494 25.4375 30.3944 26.1679 30.8802C26.6099 31.1742 27.1286 31.6226 27.0899 32.0897C27.0503 32.5669 26.4341 32.9441 26.2003 33.049L26.1534 33.0774C26.0762 33.1385 24.2613 34.596 24.2204 36.6808C24.1958 37.9413 24.8271 39.1442 26.0973 40.2574L25.9124 51.2383C25.5247 51.5487 24.0215 52.8638 24.0512 54.5721C24.0707 55.6961 24.7498 56.7367 26.0699 57.6666V59.9828C25.7827 60.1744 25.0406 60.7456 25.0057 61.553C24.982 62.1046 25.2902 62.6359 25.9212 63.1352H59.6052C60.9621 63.1352 62.2838 62.9815 63.5541 62.6915C64.7928 61.2714 65.9204 59.7521 66.926 58.1485L70.3394 51.0862H70.3407C70.958 49.342 71.4448 47.5363 71.7881 45.6801L71.787 45.6782L72.3738 38.1241Z" fill="#3EF27A"/>
<path d="M26.4292 27.666H13.3944C8.6835 27.666 4.39634 29.5129 1.21733 32.5199C0.878809 34.3437 0.677979 36.2156 0.625977 38.1249L1.08857 44.9745C1.43457 47.0791 1.96382 49.1222 2.65918 51.0865L2.66035 51.0859L6.07373 58.1482C7.07935 59.7518 8.20698 61.271 9.44565 62.6912C10.7158 62.9812 12.0374 63.1349 13.3944 63.1349H26.29C23.8927 61.4748 26.29 60.1038 26.29 60.1038V57.5513C21.8419 54.5068 26.1308 51.3471 26.1308 51.3471L26.3192 40.1583C22.1076 36.5542 26.29 33.2497 26.29 33.2497C26.29 33.2497 28.5898 32.2268 26.29 30.6972C23.9902 29.1676 26.4292 27.666 26.4292 27.666Z" fill="#00E84D"/>
<path d="M26.29 57.5513H13.3944C8.74746 57.5513 4.70347 54.9282 2.66016 51.0859C3.54214 53.5781 4.69116 55.9435 6.07354 58.1482C8.23052 59.3917 10.7309 60.1038 13.3944 60.1038H26.29C26.9949 60.1038 27.5663 59.5324 27.5663 58.8275C27.5663 58.1226 26.9949 57.5513 26.29 57.5513Z" fill="#41FF80"/>
<path d="M1.24336 45.4003C1.24336 38.7002 6.69419 33.2494 13.3941 33.2494H26.2898C26.9947 33.2494 27.5662 32.678 27.5662 31.9731C27.5662 31.2682 26.9947 30.6968 26.2898 30.6968H13.3942C7.93491 30.6968 3.16128 33.6877 0.625195 38.1169C0.61626 38.4473 0.61084 38.7785 0.61084 39.1108C0.61084 41.4347 0.834375 43.7061 1.25625 45.9068C1.24937 45.7388 1.24336 45.5702 1.24336 45.4003Z" fill="#41FF80"/>
<path d="M55.3606 51.3705C54.7929 51.3705 54.2909 51.0099 54.1098 50.4711C54.1054 50.4579 54.1012 50.4449 54.0974 50.4316L52.6233 45.4351L51.7305 50.3821C51.6209 50.9891 51.0398 51.3922 50.4332 51.2826C49.8262 51.1731 49.423 50.5923 49.5326 49.9854L51.1108 41.2416C51.2264 40.6406 51.723 40.2017 52.3208 40.1617C52.9171 40.1211 53.4691 40.4904 53.6598 41.0583C53.6642 41.0714 53.6683 41.0846 53.6723 41.0977L55.3457 46.7698L56.9594 41.109C56.9632 41.0961 56.967 41.0832 56.9711 41.0703C57.1559 40.5007 57.7032 40.1271 58.3007 40.1602C58.8987 40.1941 59.3996 40.6275 59.5192 41.2143L61.1934 49.9741C61.3091 50.5798 60.912 51.1649 60.3061 51.2806C59.7004 51.3965 59.1153 50.9992 58.9996 50.3933L58.0505 45.4277L56.6274 50.4197C56.6238 50.4326 56.6198 50.4453 56.6157 50.4581C56.4398 51.0008 55.9381 51.3675 55.3675 51.3705C55.3653 51.3705 55.363 51.3705 55.3606 51.3705Z" fill="white"/>
<path d="M27.2695 51.371C26.2718 51.371 26.2107 51.3605 26.1311 51.3468C25.5948 51.2551 25.2026 50.7902 25.2026 50.2461V41.2749C25.2026 40.6582 25.7026 40.1582 26.3193 40.1582C26.9361 40.1582 27.4359 40.6582 27.4359 41.2749V49.137C28.0191 49.1362 28.7628 49.1334 29.4571 49.1295C30.0686 49.1307 30.5767 49.6233 30.5801 50.24C30.5834 50.8567 30.0863 51.3594 29.4696 51.3629C28.4481 51.3685 27.7501 51.371 27.2695 51.371Z" fill="white"/>
<path d="M23.196 51.3294H19.4472C18.8304 51.3294 18.3306 50.8294 18.3306 50.2127V41.3159C18.3306 40.6992 18.8305 40.1992 19.4472 40.1992H23.196C23.8129 40.1992 24.3127 40.6992 24.3127 41.3159C24.3127 41.9326 23.8127 42.4325 23.196 42.4325H20.5639V49.0961H23.196C23.8129 49.0961 24.3127 49.596 24.3127 50.2127C24.3127 50.8294 23.8129 51.3294 23.196 51.3294Z" fill="white"/>
<path d="M22.9196 46.8808H19.4472C18.8304 46.8808 18.3306 46.3808 18.3306 45.7641C18.3306 45.1474 18.8305 44.6475 19.4472 44.6475H22.9196C23.5365 44.6475 24.0363 45.1474 24.0363 45.7641C24.0363 46.3808 23.5365 46.8808 22.9196 46.8808Z" fill="white"/>
<path d="M66.3072 51.3294H62.5585C61.9417 51.3294 61.4419 50.8294 61.4419 50.2127V41.3159C61.4419 40.6992 61.9418 40.1992 62.5585 40.1992H66.3072C66.9241 40.1992 67.4239 40.6992 67.4239 41.3159C67.4239 41.9326 66.9239 42.4325 66.3072 42.4325H63.6752V49.0961H66.3072C66.9241 49.0961 67.4239 49.596 67.4239 50.2127C67.4239 50.8294 66.9241 51.3294 66.3072 51.3294Z" fill="white"/>
<path d="M66.03 46.8808H62.5576C61.9407 46.8808 61.4409 46.3808 61.4409 45.7641C61.4409 45.1474 61.9409 44.6475 62.5576 44.6475H66.03C66.6468 44.6475 67.1466 45.1474 67.1466 45.7641C67.1466 46.3808 66.6468 46.8808 66.03 46.8808Z" fill="white"/>
<path d="M35.1956 51.3702C32.1043 51.3702 29.5894 48.8554 29.5894 45.764C29.5894 42.6727 32.1043 40.1577 35.1956 40.1577C36.319 40.1577 37.4031 40.4891 38.331 41.1159C38.8419 41.4611 38.9764 42.1553 38.6311 42.6664C38.2858 43.1773 37.5917 43.3118 37.0806 42.9666C36.5235 42.5901 35.8716 42.3912 35.1956 42.3912C33.3358 42.3912 31.8228 43.9042 31.8228 45.764C31.8228 47.6237 33.3358 49.1368 35.1956 49.1368C35.8842 49.1368 36.4634 48.932 36.9169 48.5281C37.0053 48.4495 37.0899 48.362 37.1683 48.2686C37.5647 47.796 38.2693 47.7343 38.7416 48.1306C39.2141 48.5268 39.2759 49.2312 38.8795 49.7038C38.7319 49.8799 38.5713 50.0454 38.4024 50.1958C37.5398 50.9642 36.4309 51.3702 35.1956 51.3702Z" fill="white"/>
<path d="M8.6335 51.3707C8.07598 51.3707 7.5772 51.019 7.39029 50.4931C7.37212 50.4419 7.35762 50.3893 7.34707 50.3359L5.59761 41.4918C5.47793 40.8868 5.87139 40.2993 6.47637 40.1796C7.08267 40.0601 7.6689 40.4535 7.78858 41.0584L8.83008 46.324L10.4899 40.9614C10.6723 40.3721 11.2982 40.0426 11.8869 40.2249C12.4761 40.4072 12.8058 41.0327 12.6234 41.6219L9.8918 50.4468C9.88872 50.4566 9.8855 50.4663 9.88228 50.4761C9.70166 51.0074 9.20332 51.3669 8.64214 51.3709C8.6395 51.3707 8.63643 51.3707 8.6335 51.3707Z" fill="white"/>
<path d="M14.472 51.3707C13.9145 51.3707 13.4157 51.019 13.2288 50.4932C13.2235 50.4782 13.2186 50.4631 13.2139 50.448L10.4893 41.6039C10.3076 41.0144 10.6384 40.3895 11.2277 40.2079C11.8173 40.0266 12.4422 40.357 12.6237 40.9463L14.2801 46.3235L15.325 41.0736C15.4454 40.4688 16.0328 40.0756 16.6382 40.1963C17.2432 40.3167 17.6359 40.9046 17.5155 41.5096L15.7592 50.3345C15.7497 50.3824 15.7369 50.4297 15.7212 50.476C15.5406 51.0073 15.0423 51.3668 14.4811 51.3707C14.4782 51.3707 14.4751 51.3707 14.472 51.3707Z" fill="white"/>
<path d="M44.3455 51.3702C41.2542 51.3702 38.7393 48.8554 38.7393 45.764C38.7393 42.6727 41.2542 40.1577 44.3455 40.1577C47.4368 40.1577 49.9518 42.6726 49.9518 45.764C49.9516 48.8554 47.4366 51.3702 44.3455 51.3702ZM44.3455 42.3913C42.4857 42.3913 40.9727 43.9043 40.9727 45.7641C40.9727 47.6239 42.4857 49.1369 44.3455 49.1369C46.2053 49.1369 47.7183 47.6239 47.7183 45.7641C47.7182 43.9043 46.2053 42.3913 44.3455 42.3913Z" fill="white"/>
<path d="M66.9259 58.1482C68.3083 55.9435 69.4573 53.5781 70.3393 51.0859C68.296 54.9282 64.252 57.5513 59.605 57.5513H26.2895C25.5846 57.5513 25.0132 58.1228 25.0132 58.8276C25.0132 59.5325 25.5846 60.104 26.2895 60.104H59.605C62.2686 60.1038 64.7689 59.3917 66.9259 58.1482Z" fill="#71FFA0"/>
<path d="M53.7123 33.2494H26.2895C25.5846 33.2494 25.0132 32.678 25.0132 31.9731C25.0132 31.2682 25.5846 30.6968 26.2895 30.6968H53.7123C54.4171 30.6968 54.9886 31.2682 54.9886 31.9731C54.9886 32.678 54.4171 33.2494 53.7123 33.2494Z" fill="#71FFA0"/>
<path d="M59.6056 30.6968H53.7128C53.008 30.6968 52.4365 31.2682 52.4365 31.9731C52.4365 32.678 53.008 33.2494 53.7128 33.2494H59.6056C66.3057 33.2494 71.7563 38.7002 71.7563 45.4003C71.7563 45.4957 71.7676 45.5882 71.7874 45.6776C72.1811 43.5484 72.3889 41.3541 72.3889 39.111C72.3889 38.7786 72.3836 38.4474 72.3745 38.1171C69.8386 33.6878 65.0649 30.6968 59.6056 30.6968Z" fill="#A0F9BE"/>
<path d="M36.4998 24.8162C41.8864 24.8162 46.253 22.3761 46.253 19.3661C46.253 16.3561 41.8864 13.916 36.4998 13.916C31.1132 13.916 26.7466 16.3561 26.7466 19.3661C26.7466 22.3761 31.1132 24.8162 36.4998 24.8162Z" fill="#3CA05D"/>
<path d="M36.4999 75C41.0761 75 45.4507 74.1406 49.475 72.5789C48.1299 69.6911 45.1983 67.6758 41.8173 67.6758H31.1827C27.8015 67.6758 24.8699 69.6911 23.5249 72.5789C27.5491 74.1406 31.9237 75 36.4999 75Z" fill="#3CA05D"/>
</svg>
